<?xml version="1.0" encoding="UTF-8"?>
<svg width="1920px" height="2079px" viewBox="0 0 1920 2079" version="1.1" xmlns="http://www.w3.org/2000/svg" xmlns:xlink="http://www.w3.org/1999/xlink">
    <!-- Generator: Sketch 52.6 (67491) - http://www.bohemiancoding.com/sketch -->
    <title>anft-3</title>
    <desc>Created with Sketch.</desc>
    <defs>
        <linearGradient x1="50%" y1="78.0848245%" x2="50%" y2="2.77555756e-15%" id="linearGradient-1">
            <stop stop-color="#5D00CC" offset="0%"></stop>
            <stop stop-color="#440061" offset="100%"></stop>
        </linearGradient>
        <linearGradient x1="49.9785325%" y1="-2.51534904e-15%" x2="50%" y2="98.6903902%" id="linearGradient-2">
            <stop stop-color="#9F7545" offset="0%"></stop>
            <stop stop-color="#F7DFA4" offset="53.2424133%"></stop>
            <stop stop-color="#9C7244" offset="100%"></stop>
        </linearGradient>
        <path d="M462.525754,0.341622353 C610.397622,7.15155236 722.054843,132.430979 797.497416,376.179901 L869.071318,47.9820548 C870.993156,39.1695805 878.851891,32.9270982 887.870666,33.0490408 L1079.704,35.6428151 C1080.00064,35.646826 1080.29603,35.682125 1080.58526,35.7481259 C1082.85613,36.2663231 1084.27695,38.5273056 1083.75875,40.7981717 L912.456404,791.486642 C908.746234,807.745509 908.945713,824.652571 913.038459,840.819375 C943.727298,962.043705 989.469929,1023.80545 1050.26635,1026.10461 C1120.32081,1028.75388 1158.35235,981.635212 1164.36099,884.748601 L1208.30313,884.748601 C1195.981,1088.54827 1137.98884,1194.8639 1034.32665,1203.6955 C951.021203,1210.79278 893.393641,1121.06395 861.443968,934.508989 C767.445311,1113.96666 628.908182,1203.6955 445.832581,1203.6955 C171.21918,1203.6955 -30.6396737,954.784372 3.83840179,531.765964 C38.3164773,108.747557 298.444885,-7.21477931 462.525754,0.341622353 Z M239.406133,575.217686 C232.042971,828.649322 269.145318,1155.89013 475.919018,1123.78161 C682.692717,1091.67308 752.827113,588.50902 758.957281,527.596347 C765.087449,466.683674 639.600272,98.2246291 469.072015,98.2246291 C298.543759,98.2246291 246.769295,321.78605 239.406133,575.217686 Z" id="path-3"></path>
        <linearGradient x1="-1.64907832%" y1="46.234676%" x2="100%" y2="61.027118%" id="linearGradient-4">
            <stop stop-color="#EEBD6B" offset="0%"></stop>
            <stop stop-color="#FFD078" offset="30.1010121%"></stop>
            <stop stop-color="#9B7147" offset="100%"></stop>
        </linearGradient>
        <linearGradient x1="19.4514889%" y1="46.4296465%" x2="100%" y2="47.9226875%" id="linearGradient-5">
            <stop stop-color="#F9DDA3" offset="0%"></stop>
            <stop stop-color="#A88267" offset="100%"></stop>
        </linearGradient>
        <path d="M462.525754,0.341622353 C610.397622,7.15155236 722.054843,132.430979 797.497416,376.179901 L869.071318,47.9820548 C870.993156,39.1695805 878.851891,32.9270982 887.870666,33.0490408 L1079.704,35.6428151 C1080.00064,35.646826 1080.29603,35.682125 1080.58526,35.7481259 C1082.85613,36.2663231 1084.27695,38.5273056 1083.75875,40.7981717 L912.456404,791.486642 C908.746234,807.745509 908.945713,824.652571 913.038459,840.819375 C943.727298,962.043705 989.469929,1023.80545 1050.26635,1026.10461 C1120.32081,1028.75388 1158.35235,981.635212 1164.36099,884.748601 L1208.30313,884.748601 C1195.981,1088.54827 1137.98884,1194.8639 1034.32665,1203.6955 C951.021203,1210.79278 893.393641,1121.06395 861.443968,934.508989 C767.445311,1113.96666 628.908182,1203.6955 445.832581,1203.6955 C171.21918,1203.6955 -30.6396737,954.784372 3.83840179,531.765964 C38.3164773,108.747557 298.444885,-7.21477931 462.525754,0.341622353 Z M239.406133,575.217686 C232.042971,828.649322 269.145318,1155.89013 475.919018,1123.78161 C682.692717,1091.67308 752.827113,588.50902 758.957281,527.596347 C765.087449,466.683674 639.600272,98.2246291 469.072015,98.2246291 C298.543759,98.2246291 246.769295,321.78605 239.406133,575.217686 Z" id="path-6"></path>
        <filter x="-0.5%" y="-0.7%" width="101.5%" height="101.5%" filterUnits="objectBoundingBox" id="filter-7">
            <feMorphology radius="1.5" operator="dilate" in="SourceAlpha" result="shadowSpreadOuter1"></feMorphology>
            <feOffset dx="3" dy="0" in="shadowSpreadOuter1" result="shadowOffsetOuter1"></feOffset>
            <feGaussianBlur stdDeviation="1" in="shadowOffsetOuter1" result="shadowBlurOuter1"></feGaussianBlur>
            <feComposite in="shadowBlurOuter1" in2="SourceAlpha" operator="out" result="shadowBlurOuter1"></feComposite>
            <feColorMatrix values="0 0 0 0 0.588235294   0 0 0 0 0.439215686   0 0 0 0 0.278431373  0 0 0 1 0" type="matrix" in="shadowBlurOuter1"></feColorMatrix>
        </filter>
    </defs>
    <g id="anft-3" stroke="none" stroke-width="1" fill="none" fill-rule="evenodd">
        <rect id="Rectangle" fill="url(#linearGradient-1)" x="0" y="0" width="1920" height="2079.20923"></rect>
        <g id="Group" transform="translate(379.571664, 437.561779)">
            <g id="outer">
                <path stroke="#695A4B" stroke-width="26.3591433" d="M794.906629,326.205244 L856.1944,45.1738363 C859.450848,30.2415881 872.767037,19.6640487 888.04885,19.8706737 L1079.88219,22.464448 C1081.10583,22.4809928 1082.3243,22.6266011 1083.51738,22.8988547 C1092.88471,25.0364183 1098.74558,34.3629713 1096.60802,43.7302939 L925.305675,794.418764 C922.059276,808.645273 922.23382,823.438952 925.814973,837.584905 C955.227252,953.766681 997.558478,1010.92234 1050.76441,1012.93445 C1081.80063,1014.10816 1104.79159,1004.64908 1121.07517,984.474751 C1138.12063,963.356513 1148.35683,929.885562 1151.20669,883.932808 L1151.97346,871.569029 L1222.30363,871.569029 L1221.45868,885.544011 C1215.19093,989.208361 1197.20861,1068.51787 1167.13762,1123.64629 C1136.11174,1180.52529 1091.89959,1212.01783 1035.44545,1216.8275 C988.514381,1220.82583 948.819888,1197.55224 917.537417,1148.84395 C891.532687,1108.35336 870.838114,1049.74192 855.201295,972.864144 C759.506324,1135.12592 622.626126,1216.87507 445.832581,1216.87507 C303.874837,1216.87507 180.870755,1152.25806 98.1250107,1033.91483 C12.3838552,911.287558 -26.1537235,737.506339 -9.2976105,530.695315 C6.81399785,333.018768 72.601124,187.703796 175.760956,94.7950075 C219.762905,55.1655548 269.526851,26.2546287 322.217214,8.23162725 C369.528109,-7.9513 418.086433,-14.8984781 463.132069,-12.8239954 C607.886732,-6.15762178 718.304966,107.800387 794.906651,326.205307 Z M252.580145,575.600442 C248.297078,723.018727 259.766121,856.060786 289.941191,952.647036 C307.347498,1008.36223 330.592166,1050.60027 359.663801,1077.59517 C390.630012,1106.3493 428.184203,1117.85651 473.896686,1110.75812 C518.395391,1103.84821 558.991546,1072.165 595.611395,1018.24321 C627.826251,970.807661 655.990864,907.603993 680.131514,832.459423 C699.639255,771.73609 715.673051,705.912287 728.275269,639.476336 C737.027555,593.336329 743.488734,549.679328 745.843948,526.276639 C747.173137,513.069104 740.446951,479.403883 727.657713,438.765943 C713.08037,392.44628 692.434177,341.989062 668.571423,296.154438 C640.87989,242.965651 610.106399,198.183353 577.871131,166.08768 C541.907423,130.279714 505.357436,111.404201 469.072015,111.404201 C394.569217,111.404201 341.106547,157.423156 305.28174,246.597397 C273.391005,325.979039 256.605828,437.041022 252.580145,575.600442 Z"></path>
                <path stroke="url(#linearGradient-2)" stroke-width="22.1416804" d="M795.371477,333.970445 L858.254707,45.6231513 C861.297617,31.6700669 873.740614,21.7861366 888.020341,21.9792125 L1079.85368,24.5729868 C1080.929,24.5875261 1081.99978,24.7154849 1083.04825,24.9547381 C1091.28013,26.8332031 1096.4306,35.0292648 1094.55214,43.2611543 L923.249792,793.949625 C919.92919,808.501311 920.107723,823.633131 923.770731,838.10242 C953.38726,955.091005 996.26431,1012.98364 1050.68472,1015.04168 C1113.84345,1017.43017 1147.63687,975.562266 1153.31138,884.063335 L1153.95546,873.67776 L1220.06355,873.67776 L1219.35379,885.416745 C1213.10311,988.798773 1195.18539,1067.82337 1165.28638,1122.6365 C1134.58528,1178.92011 1090.98089,1209.97973 1035.26644,1214.72638 C989.179909,1218.65276 950.199214,1195.79768 919.311733,1147.70442 C892.860234,1106.51818 871.891347,1046.3318 856.177869,967.014317 C760.729422,1131.82588 623.581013,1214.76634 445.832581,1214.76634 C304.566037,1214.76634 182.205935,1150.48763 99.853199,1032.70648 C14.4153959,910.513062 -24.0144647,737.217586 -7.19584853,530.866619 C8.87395784,333.702949 74.4329489,188.891896 177.172168,96.3619247 C220.959838,56.925458 270.475308,28.1588865 322.899695,10.2268637 C369.960269,-5.87044006 418.254167,-12.779787 463.035059,-10.7174966 C608.312269,-4.02705813 718.940806,111.691204 795.371489,333.970481 Z M250.472303,575.539201 C246.18304,723.170746 257.670266,856.423736 287.928401,953.275863 C324.463075,1070.21833 385.244964,1126.65826 474.220259,1112.84187 C519.38525,1105.8285 560.437421,1073.78939 597.355867,1019.42793 C629.700192,971.801742 657.942132,908.424547 682.139188,833.1044 C701.675976,772.290648 717.729746,706.384847 730.347056,639.869333 C739.110392,593.671072 745.580502,549.953724 747.942082,526.487792 C749.308882,512.906522 742.541348,479.034344 729.669184,438.132909 C715.055685,391.698358 694.362858,341.127171 670.441844,295.180646 C642.658023,241.814594 611.766467,196.860486 579.35899,164.59335 C543.033956,128.425622 505.990893,109.295469 469.072015,109.295469 C393.595814,109.295469 339.442258,155.909117 303.325007,245.811301 C271.323242,325.469318 254.504579,436.752869 250.472303,575.539201 Z"></path>
            </g>
            <g id="fill">
                <use fill="black" fill-opacity="1" filter="url(#filter-7)" xlink:href="#path-6"></use>
                <path stroke="url(#linearGradient-5)" stroke-width="22.1416804" d="M1196.48402,895.819441 L1174.6278,895.819441 C1166.11622,991.248568 1124.14894,1039.9774 1049.84798,1037.16754 C982.675547,1034.62726 934.067336,968.996405 902.306187,843.536329 C897.783702,825.672011 897.563278,806.989707 901.663016,789.02366 L1071.07983,46.59806 L887.720991,44.1188692 C883.963168,44.0680598 880.688695,46.6690941 879.887929,50.3409584 L799.354386,419.622708 L786.921556,379.453229 C712.704368,139.663428 604.225284,17.9498721 462.016449,11.4007413 C420.015369,9.46646926 374.497948,15.9785893 330.065741,31.1768469 C280.43411,48.1535934 233.527633,75.404441 191.989893,112.814555 C145.649678,154.549919 106.764553,208.17163 77.0653088,273.773292 C44.2417336,346.276184 23.0371224,432.49379 14.8726521,532.66531 C-1.5522471,734.185685 35.7465739,902.380854 117.999176,1020.01879 C196.225326,1131.89808 311.823637,1192.62466 445.832581,1192.62466 C624.652975,1192.62466 759.491917,1105.29109 851.637001,929.372169 L866.829011,900.368322 L872.355938,932.640189 C888.102086,1024.58235 910.071952,1092.34419 937.942055,1135.73925 C964.682136,1177.37482 996.167948,1195.83552 1033.38687,1192.66462 C1081.3346,1188.57967 1118.55739,1162.06568 1145.84844,1112.03365 C1172.83632,1062.55742 1189.80771,990.44288 1196.48402,895.819441 Z M228.339962,574.896172 C232.441461,433.72726 249.61173,320.117246 282.77932,237.557288 C321.967225,140.011706 383.375081,87.1537889 469.072015,87.1537889 C512.642186,87.1537889 554.862552,108.957656 594.981512,148.902881 C629.197183,182.970381 661.32842,229.728501 690.08127,284.955825 C714.614003,332.077317 735.796489,383.84518 750.789633,431.486055 C764.532509,475.154189 771.734209,511.199407 769.97248,528.704902 C767.544071,552.83489 760.980182,597.185883 752.100821,643.995799 C739.325041,711.346727 723.061548,778.113507 703.219759,839.876662 C678.430452,917.040357 649.376581,982.239591 615.672825,1031.86751 C575.61911,1090.84557 529.778768,1126.6216 477.617777,1134.72134 C424.570579,1142.95869 379.565869,1129.16853 343.162643,1095.36577 C310.563774,1065.0956 285.354384,1019.28746 266.794104,959.878551 C235.663794,860.234711 223.985641,724.766948 228.339962,574.896172 Z" stroke-linejoin="square" fill="url(#linearGradient-4)" fill-rule="evenodd"></path>
            </g>
        </g>
    </g>
</svg>